Patient4_TMGait_0pt7_01_right_16_EMG.mot
version=1
nRows=20
nColumns=33
inDegrees=no
endheader
time	1LAddLong	2LGlutMax	3LGlutMed	4LIliopsoas	5LSemiMemb	6LBicFemLong	7LRecFem	8LVastMed	9LVastLat	10LGasMed	11LTibAnt	12lTibPost	13LPeroneusLong	14LSol	15LExtDigLong	16LFlexDigLong	17RAddLong	18RGlutMax	19RGlutMed	20RIliopsoas	21RSemiMemb	22RBicFemLong	23RRecFem	24RVastMed	25RVastLat	26RGasMed	27RTibAnt	28RTibPost	29RPeroneusLong	30RSol	31RExtDigLong	32RFlexDigLong
18.565	0.097198	0.16998	0.010681	-0.000305	0.15823	-0.015411	-0.1622	-0.028229	0.046844	-0.009155	-0.021973	-0.013123	0.1915	0.07782	0.031586	-0.001221	-0.001831	-0.13367	-0.35248	-0.040894	0.13214	0.075989	-0.2385	-0.088959	-0.012207	-0.036316	0.021667	-0.060425	-0.27756	-0.80002	-0.000763	-0.015106
18.566	0.079041	0.20233	-0.073242	0.015411	0.097046	-0.24719	-0.089417	-0.008392	0.075226	0.009766	-0.007324	-0.007782	0.14877	0.025635	0.009766	-0.009613	-0.002441	-0.14511	-0.62057	-0.034637	0.11902	0.11902	-0.25177	-0.092468	0.013428	-0.037842	0.0383	0.066986	-0.20538	-0.007477	0.000153	-0.000458
18.567	0.071259	0.22263	-0.13062	-0.002289	0.020142	-0.634	-0.095978	0.00351	0.073853	0.024261	-0.005798	-0.005798	-0.17899	0.066223	0.042267	-0.000763	0.00061	-0.13687	-0.75577	-0.10895	0.13596	0.11887	-0.27649	-0.092468	0.027771	-0.033112	0.051422	0.024109	-0.086517	0.64636	-0.00351	0.000916
18.568	0.076294	0.27191	-0.17654	-0.011902	0.007782	-0.96222	-0.14542	0.015411	0.03418	0.013733	-0.022888	-0.008698	-0.23834	0.066223	0.02594	-0.009308	0.003662	-0.19806	-0.59113	-0.12131	0.13931	0.14374	-0.24704	-0.083008	0.017853	-0.034485	0.092621	0.006866	0.16022	0.99548	-0.001068	-0.008698
18.569	0.073395	0.36972	-0.01358	-0.009613	0.081329	-0.79315	-0.1471	0.031738	0.02182	0.013123	-0.007935	-0.004883	0.29251	0.057526	0.009308	-0.012207	-0.028381	-0.12985	-0.28946	-0.08667	0.13062	0.15686	-0.25406	-0.08255	0.020752	-0.035858	0.093079	0.000153	0.83389	0.41916	-0.003357	-0.000153
18.57	0.045319	0.34943	-0.078583	-0.007782	0.14252	-0.31754	-0.12024	0.006409	-0.045319	0.005341	-0.000458	-0.007477	0.36438	0.092926	-0.060577	-0.006256	-0.043335	-0.16251	-0.26138	-0.002441	0.12207	0.15701	-0.2356	-0.043793	0.021362	-0.02594	0.049896	0.005035	1.1057	0.20844	-0.003357	-0.011902
18.571	0.017548	0.39078	-0.09201	0.005035	0.060883	-0.056305	-0.10498	0.009308	-0.037842	0.000458	0.038452	-0.006561	0.79117	0.064697	-0.10162	-0.009766	-0.042419	-0.19089	-0.616	0.053711	0.11108	0.17487	-0.20691	-0.044708	0.007782	0.001831	-0.13886	0.007172	0.21942	0.46692	-0.000916	-0.001068
18.572	-0.000458	0.43549	-0.025482	-0.014038	0.005798	0.11841	-0.029602	0.006866	0.15198	-0.020142	-0.040131	-0.016022	1.003	0.16678	-0.057983	-0.000458	-0.023193	-0.15121	-0.74585	0.070648	0.12238	0.15533	-0.21759	-0.03067	0.001831	-0.010834	-0.084076	-0.007629	-0.93353	0.19562	-0.004425	-0.000763
18.573	-0.036469	0.47577	0.072632	-0.013123	-0.031738	0.15671	-0.014038	-0.016785	0.34653	-0.018921	-0.045471	-0.018616	0.20111	0.1506	-0.10422	-0.008545	-0.015259	-0.14496	-0.30014	-0.046387	0.11124	0.1619	-0.22171	-0.026703	-0.005646	-0.019989	0.005035	-0.021667	-0.31235	0.27344	-0.003052	-0.010376
18.574	-0.074921	0.46509	0.13886	0.013885	-0.083466	0.24994	-0.045166	0.001526	0.41977	-0.024109	-0.034332	-0.009766	-0.23178	0.071564	-0.091705	-0.013428	-0.004578	-0.11429	0.29709	-0.040741	0.11139	0.14023	-0.2092	-0.064392	0.010529	-0.021515	0.022125	-0.022888	0.86426	0.30472	-0.002899	-0.01358
18.575	-0.09613	0.49545	0.11505	0.020294	-0.14496	0.39002	0.009766	0.007019	0.34271	-0.041962	-0.023956	-0.01236	-0.62271	0.002594	0.045776	-0.010834	0.021515	-0.16586	-0.20371	0.1091	0.099945	0.13687	-0.20294	-0.010529	0.001068	-0.025482	0.066986	-0.018921	0.1503	0.12085	-0.008545	-0.025024
18.576	-0.1239	0.49301	0.017548	0	-0.21164	0.45059	0.03479	0.01236	0.18738	-0.009003	-0.009155	-0.009766	-0.066528	-0.11658	0.045624	-0.014496	0.026245	-0.18204	-0.50446	0.15045	0.10483	0.10071	-0.23605	-0.026245	-0.009613	-0.02655	0.0177	-0.007935	-1.2724	0.00061	-0.003204	-0.018616
18.577	-0.13153	0.54871	0.017395	-0.001373	-0.21759	0.37933	0.028687	0.02533	0.13321	-0.03891	-0.019073	-0.008545	0.21668	-0.079803	0.047455	-0.013123	0.037842	-0.13016	-0.29617	0.12848	0.10101	0.10223	-0.20309	-0.03067	-0.010223	-0.031738	0.068665	-0.005341	-2.0921	0.000153	-0.005188	-0.014648
18.578	-0.10223	0.53451	0.016785	-0.003052	-0.18127	0.080566	0.025635	0.026245	-0.11749	-0.04303	0.011749	-0.002594	0.033264	-0.048218	0.055084	-0.007019	0.045166	-0.10696	-0.52124	0.075378	0.10788	0.10452	-0.24094	0.003357	-0.008392	-0.028534	0.08606	0.001526	-2.6558	0.073242	-0.001831	-0.023804
18.579	-0.030823	0.50415	0.041656	0.003967	-0.13443	-0.32028	-0.016632	0.041656	-0.18646	0.00824	0.043488	-0.000153	-0.21896	-0.037384	0.061035	-0.003967	0.040894	-0.07431	-0.74768	0.009613	0.097809	0.093689	-0.24231	0.010223	0.000305	-0.019836	-0.003052	-0.003662	0.68314	0.024261	0.001373	-0.024719
18.58	0.049591	0.44266	0.014343	0.01236	0.058289	-0.38208	-0.05249	0.036011	-0.31265	-0.00061	0.012817	0.007782	-0.21576	-0.01297	0.050049	0.021057	0.031433	-0.035248	-0.45334	-0.038147	0.082703	0.087433	-0.22369	-0.051422	0.012817	-0.008087	-0.22034	-0.002441	2.8368	-0.07782	0.00351	-0.018921
18.581	0.090179	0.39612	0.043335	0.012207	0.29602	-0.44769	-0.038605	0.026245	-0.35324	0.019989	0.002594	0.005188	-0.32883	-0.057831	0.02533	0.002136	0.008392	-0.050049	0.44571	-0.1297	0.074158	0.072784	-0.20874	0.004272	0.002899	-0.002441	-0.032654	-0.001678	2.6872	-0.085449	-0.001373	-0.015717
18.582	0.098114	0.35584	0.033264	0.002441	0.29739	-0.2095	-0.097656	0.023651	-0.33691	-0.008392	0.002289	0.012054	-0.22598	-0.093384	-0.015259	0.013123	0.007324	-0.055237	0.082855	-0.068359	0.070648	0.092468	-0.16464	0.007935	-0.003662	-0.012665	0.075378	-0.027924	0.75928	0.015564	-0.001984	-0.012817
18.583	0.067139	0.26032	-0.015564	0.00824	0.14801	-0.010834	-0.15839	0.031433	-0.37354	-0.035706	0.04715	0.01297	-0.087433	0.018616	0.058441	0.025635	-0.006561	-0.076599	-0.5484	-0.042267	0.072021	0.072632	-0.16388	0.006409	-0.012665	-0.02121	0.16846	-0.002136	-0.11948	0.074005	-0.003052	-0.015869
18.584	0.057068	0.18402	-0.038452	-0.00351	0.07019	0.10086	-0.086517	0.037231	-0.41901	0.00412	0.044708	0.022125	-0.1535	0.036621	0.091553	0.035553	-0.000763	-0.11063	-0.63278	-0.029297	0.066528	0.066376	-0.17151	-0.012665	-0.014038	-0.01358	0.10681	-0.066681	-0.43457	0.020294	-0.003357	-0.011139
